<?xml version="1.0" standalone="no"?>
<!DOCTYPE svg PUBLIC "-//W3C//DTD SVG 20010904//EN"
 "http://www.w3.org/TR/2001/REC-SVG-20010904/DTD/svg10.dtd">
<svg version="1.0" xmlns="http://www.w3.org/2000/svg"
 width="800.000000pt" height="1024.000000pt" viewBox="0 0 800.000000 1024.000000"
 preserveAspectRatio="xMidYMid meet">

<g transform="translate(0.000000,1024.000000) scale(0.100000,-0.100000)"
fill="#000000" stroke="none">
<path d="M4221 6004 l-102 -100 5 -715 4 -714 106 -3 106 -3 -1 798 c0 439 -4
807 -8 818 -7 18 -20 8 -110 -81z"/>
<path d="M3822 5947 l-102 -92 0 -692 0 -693 109 0 110 0 -6 783 c-3 430 -6
783 -7 784 -1 1 -47 -40 -104 -90z"/>
<path d="M4694 5728 c-16 -12 -59 -51 -96 -87 l-68 -65 0 -553 0 -553 105 0
105 0 0 634 c0 356 -4 637 -9 640 -5 3 -22 -4 -37 -16z"/>
<path d="M5250 5498 c-109 -17 -232 -99 -296 -198 -22 -34 -22 -41 -27 -435
-4 -331 -2 -409 10 -452 8 -29 17 -53 21 -53 4 1 27 19 52 42 25 23 38 38 30
33 -8 -4 14 22 50 59 35 36 67 66 69 66 3 0 -21 -26 -53 -59 -67 -67 -61 -96
7 -32 43 41 62 45 97 17 36 -29 77 -41 134 -41 89 0 123 8 201 48 81 41 150
105 175 162 18 41 16 70 -3 58 -6 -3 -7 -1 -3 6 4 6 11 9 16 6 4 -3 11 2 14
11 3 8 2 12 -4 9 -6 -3 -7 1 -4 9 3 9 10 14 14 11 4 -3 7 1 7 8 -1 6 7 39 18
72 27 84 26 238 -3 317 -56 154 -198 291 -337 326 -65 16 -126 20 -185 10z
m168 -232 c44 -23 117 -107 137 -159 39 -103 0 -247 -88 -323 -57 -48 -114
-64 -229 -64 l-99 0 3 250 c3 281 2 275 84 306 46 17 149 12 192 -10z m292
-570 c0 -2 -8 -10 -17 -17 -16 -13 -17 -12 -4 4 13 16 21 21 21 13z"/>
<path d="M2820 4976 l0 -506 178 0 c98 0 205 5 238 11 210 38 374 257 374 500
0 192 -111 377 -278 460 l-67 34 -222 3 -223 3 0 -505z m393 271 c47 -20 94
-63 124 -114 21 -36 27 -63 31 -123 5 -92 -14 -144 -78 -214 -57 -61 -111 -86
-188 -86 l-62 0 0 193 c0 105 3 229 7 275 l6 82 64 0 c35 0 78 -6 96 -13z"/>
<path d="M4225 4169 c-67 -36 -95 -59 -101 -85 -4 -17 -13 -24 -30 -24 -17 0
-24 -6 -24 -20 0 -11 7 -20 15 -20 8 0 15 -4 15 -10 0 -5 -7 -10 -15 -10 -23
0 -18 -17 6 -23 21 -6 21 -10 15 -86 l-7 -81 30 0 31 0 0 80 c0 75 1 80 21 80
19 0 21 4 16 35 -5 30 -3 35 14 35 24 0 37 29 18 41 -11 7 -10 12 7 27 12 9
24 32 26 50 3 17 4 32 4 32 -1 0 -19 -10 -41 -21z"/>
<path d="M3660 3934 l0 -134 43 0 c67 0 113 18 146 56 36 40 41 95 16 144 -21
40 -57 57 -137 62 l-68 5 0 -133z m134 55 c37 -29 37 -89 0 -118 -15 -12 -37
-21 -50 -21 -23 0 -24 3 -24 80 0 77 1 80 24 80 13 0 35 -9 50 -21z"/>
<path d="M3979 4063 c-21 -5 -29 -52 -29 -165 l0 -88 30 0 30 0 0 130 c0 72
-3 129 -7 129 -5 -1 -15 -3 -24 -6z"/>
<path d="M4285 3944 c-7 -131 -3 -149 31 -142 14 2 20 14 22 46 l3 42 50 0 49
0 0 35 0 35 -50 0 c-47 0 -50 2 -50 25 0 24 3 25 60 25 l60 0 0 30 0 30 -84 0
-84 0 -7 -126z"/>
<path d="M4520 3935 l0 -135 29 0 c28 0 30 2 33 48 3 47 3 47 43 52 35 4 40 9
43 33 3 26 2 27 -42 27 -39 0 -46 3 -46 20 0 18 7 20 61 20 59 0 61 1 55 23
-3 12 -6 28 -6 35 0 9 -24 12 -85 12 l-85 0 0 -135z"/>
<path d="M7940 1640 c-9 -6 -10 -10 -3 -10 6 0 15 5 18 10 8 12 4 12 -15 0z"/>
<path d="M7936 1592 c-3 -5 1 -9 9 -9 8 0 12 4 9 9 -3 4 -7 8 -9 8 -2 0 -6 -4
-9 -8z"/>
<path d="M7939 1505 c-1 -3 -3 -14 -4 -25 -1 -11 -3 -23 -4 -26 0 -4 -9 0 -18
7 -17 13 -17 13 -1 -6 9 -11 18 -27 20 -35 2 -8 9 -21 16 -28 19 -21 5 -28
-16 -9 -22 20 -32 22 -32 5 0 -6 3 -8 7 -5 3 4 11 2 18 -3 15 -13 7 -67 -12
-74 -9 -4 -12 -2 -7 7 6 8 3 8 -9 -1 -9 -8 -22 -10 -29 -6 -11 6 -11 5 0 -8
11 -13 8 -15 -19 -12 -17 2 -35 7 -41 10 -7 4 -8 2 -4 -4 4 -7 1 -12 -8 -12
-8 0 -18 -5 -22 -12 -5 -7 -3 -8 5 -3 9 5 9 1 -1 -14 -12 -19 -13 -19 -19 -3
-4 10 0 25 10 36 9 11 11 16 5 13 -7 -4 -15 0 -18 9 -4 11 -13 14 -31 10 -16
-4 -25 -2 -25 5 0 8 13 10 38 6 35 -6 36 -5 17 9 -11 9 -29 20 -39 26 -16 8
-18 7 -13 -6 4 -11 1 -16 -9 -16 -15 0 -15 2 0 25 10 15 12 25 6 25 -6 0 -8 5
-5 10 4 6 11 7 17 4 7 -5 8 -2 3 5 -5 9 -11 9 -17 3 -6 -6 -17 -8 -24 -5 -8 3
-14 0 -14 -7 0 -7 -8 -9 -20 -5 -12 4 -29 -1 -42 -11 -14 -10 -16 -14 -6 -11
12 4 16 1 15 -12 0 -10 -7 -18 -14 -18 -6 0 -10 4 -8 8 6 9 -21 20 -29 12 -3
-4 -1 -12 6 -20 9 -11 7 -12 -8 -7 -10 4 -24 11 -30 15 -6 5 -11 3 -11 -6 0
-8 4 -12 8 -10 3 3 9 -6 11 -20 3 -14 1 -25 -3 -25 -5 0 -9 5 -9 10 0 6 -10 2
-22 -9 -11 -11 -26 -17 -32 -14 -6 3 -8 3 -4 -2 4 -4 4 -13 -2 -20 -6 -7 -3
-17 10 -27 17 -15 20 -15 36 3 12 14 13 19 4 19 -7 0 -11 3 -7 6 3 3 11 3 17
-1 8 -5 4 -15 -11 -31 -13 -14 -24 -31 -25 -40 -4 -28 -16 -30 -12 -2 1 15 -1
26 -7 25 -5 -1 -10 -12 -10 -24 1 -20 -1 -21 -15 -8 -18 17 -34 20 -25 6 3 -5
-4 -16 -16 -24 l-21 -15 20 -11 c14 -7 23 -8 27 -1 4 6 11 8 16 4 6 -3 3 -11
-8 -19 -16 -12 -16 -13 7 -10 14 1 17 0 7 -2 -13 -3 -16 -10 -11 -25 4 -13 -9
-5 -36 23 -23 24 -40 39 -36 32 3 -6 2 -14 -4 -18 -5 -3 -10 2 -10 11 0 20
-13 11 -16 -11 -1 -8 4 -15 11 -15 8 0 13 -9 12 -19 0 -11 -5 -17 -10 -14 -4
3 -6 8 -3 11 3 3 -3 12 -14 19 -16 12 -27 12 -55 3 -19 -6 -39 -9 -45 -5 -5 3
-18 1 -27 -5 -16 -10 -15 -11 5 -7 12 3 22 1 22 -4 0 -5 -5 -9 -11 -9 -8 0 -8
-4 0 -14 10 -11 7 -17 -10 -30 -13 -8 -19 -19 -15 -23 4 -4 11 -1 16 7 6 8 10
13 11 10 0 -3 2 -13 4 -22 4 -20 -15 -24 -32 -7 -8 8 -15 3 -27 -19 -8 -16
-13 -32 -9 -35 3 -4 -10 -2 -28 3 -23 7 -35 7 -37 0 -2 -6 -8 -8 -12 -5 -5 3
-11 1 -15 -4 -3 -6 3 -8 15 -6 28 5 33 -8 8 -24 -16 -10 -19 -10 -12 1 6 10 4
10 -9 -1 -23 -18 -21 -34 3 -28 11 3 23 1 26 -4 3 -5 14 -5 27 2 20 9 20 9 5
-4 -10 -8 -18 -19 -18 -25 0 -12 -47 -25 -61 -17 -5 4 -6 11 -3 17 4 7 2 8 -5
4 -9 -6 -9 -11 0 -22 6 -7 8 -22 4 -31 -6 -16 -8 -16 -16 5 -4 12 -14 22 -21
21 -10 0 -10 -2 0 -6 6 -2 12 -9 12 -14 0 -6 -6 -7 -12 -4 -7 4 -4 0 6 -9 10
-8 23 -13 27 -10 4 2 13 -5 19 -16 7 -13 7 -20 0 -20 -5 0 -10 5 -10 10 0 6
-5 10 -11 10 -6 0 -9 -7 -6 -15 4 -8 2 -17 -4 -20 -14 -9 -70 5 -63 16 3 5 0
9 -6 9 -6 0 -10 -7 -8 -16 2 -10 -3 -19 -10 -21 -7 -3 -10 1 -7 9 4 9 -2 14
-15 14 -29 0 -24 -23 8 -34 21 -7 11 -8 -40 -6 -44 3 -68 0 -68 -7 0 -5 6 -7
13 -3 9 5 9 4 1 -5 -6 -6 -21 -14 -34 -16 -13 -2 -27 -10 -32 -17 -5 -9 -8 -7
-9 7 l0 20 -9 -20 c-5 -11 -9 -14 -9 -7 -1 8 -10 11 -25 8 -16 -3 -27 1 -30
10 -3 9 -10 12 -16 9 -5 -3 -10 2 -10 11 0 16 -1 16 -14 -1 -8 -11 -12 -23
-10 -26 2 -4 -6 -5 -18 -1 -21 5 -21 6 -2 13 13 5 14 8 4 9 -9 0 -4 7 13 18
15 9 27 20 27 25 0 4 9 3 19 -2 14 -8 20 -7 25 5 3 8 2 12 -4 9 -6 -3 -10 -1
-10 4 0 14 11 13 32 -3 10 -7 14 -17 10 -22 -4 -4 1 -2 10 5 10 7 16 16 15 19
-2 8 7 12 24 12 6 0 2 -8 -10 -17 -19 -16 -20 -20 -8 -37 17 -23 47 -30 47
-11 0 7 3 21 7 31 4 12 3 15 -5 10 -7 -4 -12 -2 -12 3 0 11 20 15 48 12 8 -1
16 7 19 18 3 12 13 21 23 21 10 0 21 7 24 16 5 14 9 14 24 3 9 -7 6 -1 -7 14
-24 26 -38 36 -27 18 3 -5 -1 -11 -9 -15 -8 -3 -17 -1 -20 4 -10 16 -25 12
-25 -6 0 -10 6 -14 15 -10 8 3 15 1 15 -4 0 -6 -11 -10 -25 -10 -18 0 -25 -5
-25 -20 0 -12 -7 -20 -16 -20 -14 0 -14 3 -4 15 8 9 8 15 2 15 -6 0 -13 -6
-15 -12 -4 -9 -8 -10 -14 -2 -4 6 -16 14 -27 17 -14 6 -17 3 -12 -8 4 -12 -2
-15 -29 -15 -19 0 -35 4 -35 9 0 5 12 7 27 5 15 -3 24 -2 21 2 -4 4 -3 15 2
24 7 14 4 21 -14 34 -19 12 -24 12 -22 2 1 -8 8 -21 15 -30 17 -20 5 -21 -16
-1 -11 12 -18 13 -29 5 -7 -7 -23 -9 -36 -5 -18 6 -16 2 10 -18 30 -22 31 -25
15 -38 -9 -8 -14 -9 -10 -3 3 6 0 11 -7 11 -8 0 -12 -6 -9 -14 3 -7 -2 -13
-11 -13 -10 0 -13 6 -9 18 5 14 3 13 -11 -3 -16 -19 -17 -19 -12 17 2 21 0 35
-5 32 -5 -3 -7 -9 -4 -13 2 -5 -4 -16 -14 -25 -17 -16 -19 -15 -25 6 -9 34 -7
40 7 32 8 -5 8 -2 -2 9 -13 17 -7 22 20 19 4 -1 5 8 2 18 -3 11 -12 20 -20 20
-13 0 -13 -3 -2 -17 13 -17 13 -17 -7 0 -11 9 -24 14 -29 10 -4 -5 -5 -2 -1 5
4 7 11 10 16 7 5 -3 11 -1 15 5 8 13 -18 13 -32 -1 -6 -6 -17 -12 -24 -13 -29
-6 -49 -18 -43 -27 3 -5 0 -9 -5 -9 -6 0 -11 5 -11 12 0 6 -3 8 -6 5 -11 -10
16 -36 31 -31 7 3 16 1 19 -5 4 -6 13 -8 21 -4 8 3 15 1 15 -4 0 -5 -9 -9 -20
-10 -11 -1 -20 2 -20 8 0 5 -5 9 -11 9 -5 0 -7 -4 -4 -10 3 -5 -1 -10 -10 -10
-10 0 -13 5 -9 12 5 8 2 9 -12 4 -42 -17 -74 -24 -69 -15 4 5 -1 9 -9 9 -9 0
-16 -5 -16 -11 0 -5 -6 -7 -12 -4 -7 4 -4 0 6 -9 10 -8 23 -13 29 -9 6 3 7 1
3 -6 -4 -6 -11 -9 -16 -6 -4 3 -10 0 -12 -7 -4 -10 -10 -10 -29 0 -22 11 -22
12 -1 6 26 -6 29 4 5 22 -21 15 -47 19 -38 5 3 -5 1 -12 -4 -16 -6 -3 -8 3 -6
15 2 13 -1 20 -11 20 -8 0 -12 -4 -9 -10 3 -5 0 -7 -8 -5 -7 3 -24 -3 -37 -15
-13 -11 -19 -20 -14 -21 5 0 17 -2 27 -4 10 -2 17 3 17 11 0 9 -5 12 -12 8 -7
-4 -8 -3 -4 4 10 17 38 2 33 -19 -4 -14 0 -16 22 -13 14 2 21 1 15 -3 -17 -13
-24 -41 -11 -46 7 -2 21 3 32 12 20 16 20 16 1 -6 -18 -21 -58 -32 -54 -15 2
11 -14 46 -26 54 -6 4 -16 2 -23 -4 -11 -9 -11 -14 -1 -26 10 -13 10 -14 1 -8
-7 4 -13 3 -13 -2 0 -5 11 -15 25 -22 14 -7 25 -20 24 -29 0 -11 -2 -12 -6 -3
-9 24 -32 13 -27 -13 5 -27 -10 -35 -20 -10 -3 8 -12 15 -21 15 -8 0 -15 5
-15 10 0 6 -7 10 -15 10 -26 0 -16 -18 14 -25 31 -7 51 -35 25 -35 -8 0 -12 4
-9 10 5 9 -9 14 -18 8 -2 -2 -11 3 -20 11 -20 16 -23 1 -4 -18 10 -11 5 -13
-25 -8 -25 4 -42 1 -52 -8 -7 -8 -17 -11 -21 -7 -8 7 -3 -20 10 -50 5 -14 2
-18 -12 -18 -11 0 -20 -7 -21 -15 -1 -8 -3 -22 -4 -30 -1 -9 -6 -14 -12 -12
-6 3 -19 -3 -29 -11 -12 -11 -21 -13 -25 -6 -4 6 -15 15 -26 21 -12 7 -15 13
-7 17 6 4 11 3 11 -3 0 -5 9 -8 20 -6 11 2 18 0 15 -6 -11 -17 12 -9 26 9 7 9
10 14 5 10 -11 -9 -48 10 -41 21 2 5 -2 14 -9 20 -10 8 -16 9 -21 1 -3 -5 -2
-10 3 -10 6 0 12 -7 16 -15 6 -18 -28 -15 -46 3 -7 7 -17 12 -22 12 -6 0 0 -7
12 -16 25 -17 21 -37 -6 -27 -15 6 -15 5 -3 -10 7 -9 20 -17 28 -17 8 0 11 -5
8 -10 -3 -6 -1 -10 6 -10 7 0 10 -2 7 -5 -7 -7 -53 17 -57 30 -1 6 -8 16 -14
24 -9 11 -9 13 0 8 6 -4 14 -3 18 2 6 11 -27 7 -47 -5 -7 -4 -8 -3 -4 4 4 7 1
12 -9 12 -9 0 -28 12 -42 26 -25 25 -27 26 -40 8 -7 -10 -13 -12 -13 -6 0 7
-5 12 -10 12 -6 0 -9 -6 -8 -13 2 -7 -6 -11 -19 -9 -13 2 -23 -1 -23 -7 0 -6
-7 -8 -15 -5 -8 4 -15 13 -15 22 0 36 -13 -1 -14 -40 -1 -25 -5 -41 -11 -38
-11 6 -11 76 0 103 6 15 10 15 23 5 12 -10 11 -7 -2 15 -21 31 -28 35 -19 10
5 -13 2 -15 -12 -10 -14 6 -16 5 -6 -6 9 -11 8 -17 -2 -26 -8 -6 -18 -7 -22
-3 -5 4 -5 1 -1 -6 4 -7 12 -10 17 -7 5 4 9 -3 9 -14 0 -12 -5 -21 -11 -21 -8
0 -8 -5 1 -15 7 -8 9 -15 4 -15 -16 0 16 -24 37 -27 16 -2 19 1 14 16 -3 11
-1 23 6 26 8 6 7 10 -2 17 -10 6 -7 7 9 3 13 -4 22 -2 22 5 0 6 5 8 11 4 8 -5
7 -10 -4 -16 -10 -5 -14 -15 -10 -25 5 -12 3 -14 -7 -8 -10 6 -11 2 -6 -19 7
-28 4 -31 -23 -16 -13 6 -24 5 -37 -4 -14 -11 -24 -11 -39 -3 -30 16 -62 17
-62 1 0 -8 6 -10 16 -5 19 10 41 4 41 -11 0 -6 -8 -8 -19 -5 -14 3 -18 -1 -17
-17 1 -12 -4 -20 -12 -18 -8 1 -11 -2 -6 -9 4 -7 2 -10 -7 -7 -8 3 -13 11 -11
17 1 6 -5 11 -13 11 -8 0 -15 6 -15 13 0 8 -4 7 -10 -3 -5 -8 -10 -10 -10 -4
0 6 -7 11 -15 11 -8 0 -12 -4 -9 -8 2 -4 -5 -11 -17 -14 -21 -7 -49 16 -29 23
18 7 10 20 -15 26 -14 4 -33 2 -43 -3 -14 -8 -11 -10 12 -8 24 2 29 -2 31 -21
1 -18 -2 -22 -16 -19 -10 3 -20 0 -23 -7 -3 -7 -8 -6 -15 4 -8 11 -6 17 7 22
14 5 13 7 -5 7 -13 1 -23 6 -23 11 0 6 -9 10 -21 10 -11 0 -17 5 -14 10 3 6
-1 13 -9 16 -9 3 -14 10 -11 14 3 5 0 12 -6 16 -8 4 -9 3 -5 -4 4 -7 3 -12 -1
-12 -5 0 -18 -7 -29 -16 -18 -14 -18 -15 0 -6 13 6 24 5 35 -5 9 -8 27 -23 41
-34 14 -12 18 -18 9 -16 -11 4 -16 0 -15 -11 0 -10 -5 -16 -14 -14 -8 2 -11 0
-7 -4 10 -10 39 -15 33 -6 -2 4 24 8 58 8 42 1 53 -1 36 -6 -14 -4 -38 -9 -55
-9 -24 -1 -27 -3 -15 -12 12 -8 10 -9 -8 -4 -20 6 -23 4 -20 -12 2 -10 9 -17
16 -16 7 2 9 -4 5 -13 -5 -15 -7 -15 -15 0 -5 9 -14 13 -20 10 -7 -5 -8 -2 -3
6 5 8 3 11 -6 8 -9 -3 -13 -16 -12 -34 3 -27 2 -27 -7 -6 -5 12 -7 29 -3 37 3
9 2 15 -3 13 -5 -1 -19 2 -32 6 -19 6 -21 10 -11 22 6 8 8 14 3 14 -5 0 0 7
10 15 11 8 15 15 9 15 -7 0 -15 -5 -18 -10 -4 -6 -11 -8 -16 -5 -5 4 -9 1 -9
-4 0 -6 6 -11 13 -11 7 -1 5 -6 -5 -14 -10 -7 -15 -16 -11 -19 3 -4 -3 -7 -14
-7 -11 0 -20 -7 -20 -14 0 -11 5 -12 18 -5 24 12 39 11 39 -2 0 -6 -7 -9 -15
-5 -8 3 -15 1 -15 -4 0 -6 -7 -10 -15 -10 -8 0 -15 -5 -15 -11 0 -5 6 -7 13
-3 6 3 -1 -5 -18 -20 -16 -14 -24 -25 -17 -26 6 0 12 5 12 11 0 8 4 8 13 1 16
-14 20 -59 6 -68 -8 -4 -9 1 -4 16 5 15 3 20 -3 16 -6 -3 -13 -2 -17 4 -4 6
-11 8 -16 4 -5 -3 -7 -10 -3 -15 3 -5 11 -6 17 -2 7 4 6 0 -2 -10 -10 -12 -10
-17 -1 -17 22 0 4 -22 -38 -46 -42 -24 -82 -31 -96 -17 -4 4 -25 6 -48 4 -35
-2 -39 -1 -27 12 8 8 16 12 19 8 8 -10 30 -12 30 -2 0 14 -35 19 -105 14 -60
-5 -65 -4 -59 12 6 14 4 16 -6 10 -9 -5 -11 -4 -6 4 4 6 3 18 -4 26 -9 11 -7
12 9 8 16 -4 21 -1 21 16 0 11 -5 21 -10 21 -6 0 -9 -5 -8 -12 3 -11 -5 -13
-48 -9 -8 0 -13 5 -10 9 3 5 -2 9 -11 9 -11 0 -7 -8 13 -24 16 -13 22 -23 14
-21 -9 2 -14 -3 -12 -11 2 -11 0 -12 -10 -3 -11 8 -17 6 -26 -9 -13 -20 -8
-24 33 -19 16 2 17 -1 7 -13 -10 -11 -19 -12 -46 -3 -22 7 -30 13 -23 18 7 5
8 8 2 8 -6 0 -17 -6 -24 -13 -10 -10 -15 -8 -27 8 -8 11 -17 18 -19 15 -2 -3
-7 -2 -11 3 -4 4 -2 7 5 7 9 0 9 3 -1 14 -15 16 -38 10 -38 -9 0 -7 -6 -15
-12 -18 -7 -2 -9 -8 -5 -13 5 -5 17 2 27 16 19 25 19 25 15 2 -2 -12 0 -20 5
-17 5 3 11 1 15 -5 6 -10 -20 -14 -57 -11 -10 1 -18 -4 -18 -13 0 -19 -26 -11
-34 11 -6 14 -4 14 11 2 9 -8 14 -9 10 -2 -4 6 -1 13 5 16 7 2 -4 4 -24 4 -36
-1 -37 -2 -20 -20 16 -18 15 -18 -9 -12 -17 4 -30 1 -38 -9 -7 -8 -20 -12 -29
-9 -15 4 -15 3 -2 -6 11 -7 19 -6 30 4 13 13 16 12 27 -7 10 -19 12 -20 13 -5
0 9 4 17 9 17 14 0 9 -39 -6 -44 -7 -3 -13 -10 -13 -15 0 -6 87 -10 223 -10
149 -1 217 2 207 9 -11 7 -2 10 35 11 47 2 48 2 15 9 -29 5 -24 7 36 11 64 4
70 2 66 -13 -2 -10 -8 -15 -13 -12 -5 3 -9 0 -9 -5 0 -8 460 -11 1530 -11
l1530 0 0 685 c-1 642 -2 684 -18 679 -16 -5 -16 -5 1 9 9 8 17 23 17 33 0 15
-2 16 -9 5 -7 -12 -12 -11 -30 1 -11 8 -18 18 -14 21 3 4 11 3 17 -3 8 -6 12
-2 13 12 1 12 -7 28 -18 36 -10 7 -17 18 -14 23 4 5 4 9 1 9 -3 0 -7 -2 -7 -5z
m21 -55 c-20 -13 -33 -13 -25 0 3 6 14 10 23 10 15 0 15 -2 2 -10z m-272 -65
c-2 -1 -13 -7 -24 -13 -18 -9 -25 -8 -35 6 -13 15 -12 16 3 4 13 -11 19 -11
30 1 7 8 17 13 21 10 5 -3 7 -6 5 -8z m-45 -54 c-2 -6 5 -11 15 -12 10 0 12
-3 4 -6 -6 -2 -10 -9 -7 -13 10 -15 34 1 29 18 -5 15 -4 14 6 -1 7 -11 20 -16
36 -13 13 3 24 0 24 -5 0 -5 0 -12 0 -16 0 -14 -42 -11 -47 3 -4 10 -10 11
-25 3 -14 -7 -23 -7 -34 2 -11 9 -18 8 -33 -5 -18 -17 -20 -17 -31 3 -6 12 -8
21 -5 21 12 0 20 -5 18 -12 -2 -5 2 -8 7 -8 6 0 10 7 10 16 0 10 6 14 15 10
16 -6 16 14 0 27 -6 5 -4 7 5 4 8 -2 14 -10 13 -16z m107 -83 c0 -3 -9 -6 -20
-5 -11 1 -20 5 -20 9 0 3 9 6 20 5 11 -1 20 -5 20 -9z m-50 -38 c8 -15 8 -18
-3 -14 -8 3 -14 11 -14 19 0 20 4 19 17 -5z m227 -35 c0 -8 -4 -12 -9 -9 -5 3
-6 10 -3 15 9 13 12 11 12 -6z m58 -15 c-3 -5 -14 -10 -23 -9 -14 0 -13 2 3 9
27 11 27 11 20 0z m-425 -4 c0 -3 -4 -8 -10 -11 -5 -3 -10 -1 -10 4 0 6 5 11
10 11 6 0 10 -2 10 -4z m395 -46 c3 -6 -1 -7 -9 -4 -18 7 -21 14 -7 14 6 0 13
-4 16 -10z m-44 -17 c13 -16 12 -17 -3 -4 -17 13 -22 21 -14 21 2 0 10 -8 17
-17z m-521 -14 c0 -5 -4 -9 -10 -9 -5 0 -10 7 -10 16 0 8 5 12 10 9 6 -3 10
-10 10 -16z m114 -27 c3 -5 -1 -9 -9 -9 -8 0 -12 4 -9 9 3 4 7 8 9 8 2 0 6 -4
9 -8z m-49 -53 c0 -8 -8 -13 -17 -11 -13 2 -16 -2 -11 -14 6 -15 4 -15 -20 1
-15 9 -27 15 -27 11 0 -12 5 -21 11 -19 3 1 6 -5 6 -13 0 -7 -4 -14 -9 -14 -4
0 -8 3 -8 8 0 4 -9 13 -19 19 -16 10 -18 9 -14 -8 3 -10 1 -19 -3 -19 -5 0
-10 12 -10 26 -2 18 2 24 12 20 7 -3 20 1 28 9 10 11 16 11 18 3 3 -7 12 -9
23 -5 17 7 17 8 -1 22 -17 13 -17 13 11 6 17 -4 30 -14 30 -22z m-192 -20 c-3
-12 -9 -17 -15 -11 -10 10 0 44 12 37 5 -3 6 -14 3 -26z m-58 -20 c-7 -11 -35
-12 -35 -1 0 4 9 8 20 9 11 1 18 -2 15 -8z m375 -44 c0 -8 -4 -16 -8 -19 -4
-2 -8 6 -8 19 0 13 4 21 8 19 4 -3 8 -11 8 -19z m-59 -2 c13 -17 13 -17 -6 -3
-11 8 -22 16 -24 17 -2 2 0 3 6 3 6 0 17 -8 24 -17z m-326 -5 c5 4 5 1 1 -6
-6 -9 -11 -10 -20 -3 -7 6 -17 7 -21 3 -5 -4 -5 -1 -1 6 6 9 11 10 20 3 7 -6
17 -7 21 -3z m-683 -73 c2 3 5 -2 5 -10 0 -13 -2 -13 -17 0 -9 8 -20 12 -25 8
-4 -5 -5 -2 -1 5 6 9 11 10 20 3 7 -6 15 -9 18 -6z m174 -37 c4 -7 4 -10 -1
-6 -4 4 -15 2 -24 -5 -14 -11 -14 -10 -2 6 16 20 18 21 27 5z m404 -13 c0 -12
-19 -12 -23 0 -4 9 -1 12 9 8 7 -3 14 -7 14 -8z m-535 -51 c8 3 15 1 15 -4 0
-6 -8 -10 -17 -10 -15 0 -16 -2 -3 -10 8 -5 10 -10 4 -10 -7 0 -20 12 -30 28
-15 23 -15 25 -1 13 9 -7 24 -11 32 -7z m-195 -8 c0 -2 -8 -10 -17 -17 -16
-13 -17 -12 -4 4 13 16 21 21 21 13z m55 -13 c-1 -12 -9 -17 -21 -15 -25 5
-32 12 -11 12 10 0 17 5 17 10 0 6 4 10 9 10 5 0 8 -8 6 -17z m378 3 c4 -10 1
-13 -9 -9 -7 3 -14 9 -14 14 0 14 17 10 23 -5z m-183 -6 c12 -8 11 -10 -7 -10
-13 0 -23 5 -23 10 0 13 11 13 30 0z m371 -17 c13 -16 12 -17 -3 -4 -10 7 -18
15 -18 17 0 8 8 3 21 -13z m-571 -33 c8 -5 6 -9 -8 -12 -15 -4 -19 0 -19 19 0
16 2 20 7 13 4 -7 13 -16 20 -20z m526 15 c18 -14 17 -15 -11 -9 -46 10 -65
23 -34 24 14 0 34 -7 45 -15z m-602 -10 c-4 -8 -11 -12 -16 -9 -6 4 -5 10 3
15 19 12 19 11 13 -6z m346 -30 c14 -19 14 -19 -2 -6 -10 7 -18 18 -18 24 0 6
1 8 3 6 1 -2 9 -13 17 -24z m-430 5 c0 -5 -4 -10 -10 -10 -5 0 -10 5 -10 10 0
6 5 10 10 10 6 0 10 -4 10 -10z m200 -15 c0 -8 -8 -15 -17 -16 -11 0 -13 -3
-5 -6 16 -6 15 -20 -2 -20 -17 0 -15 19 3 41 17 20 21 20 21 1z m104 7 c3 -5
-1 -9 -9 -9 -8 0 -15 4 -15 9 0 4 4 8 9 8 6 0 12 -4 15 -8z m-161 -15 c-5 -11
-7 -11 -28 1 -19 11 -18 12 5 8 14 -1 24 -6 23 -9z m374 -2 c0 -8 -4 -12 -9
-9 -5 3 -6 10 -3 15 9 13 12 11 12 -6z m-51 -17 c-2 -14 -8 -18 -28 -18 -6 0
-3 7 8 15 23 18 23 18 20 3z m-446 -12 c0 -2 -11 -6 -25 -8 -13 -3 -22 -1 -19
3 5 9 44 13 44 5z m131 -24 c-7 -2 -18 1 -23 6 -8 8 -4 9 13 5 13 -4 18 -8 10
-11z m-681 -98 c0 -2 -9 0 -20 6 -11 6 -20 13 -20 16 0 2 9 0 20 -6 11 -6 20
-13 20 -16z m296 -17 c1 -10 -4 -17 -13 -17 -12 0 -13 3 -4 14 8 10 9 16 1 19
-6 3 -6 5 1 3 7 -1 13 -10 15 -19z m-366 -12 c0 -23 30 -26 39 -3 5 15 10 18
15 9 10 -15 -21 -40 -43 -36 -9 2 -19 4 -22 4 -4 1 -6 12 -5 25 1 25 16 26 16
1z m154 -3 c3 -5 -1 -9 -9 -9 -8 0 -12 4 -9 9 3 4 7 8 9 8 2 0 6 -4 9 -8z
m541 -2 c3 -5 1 -10 -4 -10 -6 0 -11 5 -11 10 0 6 2 10 4 10 3 0 8 -4 11 -10z
m-548 -49 c-12 -1 -25 -8 -29 -15 -6 -8 -8 -7 -8 2 0 8 9 16 20 19 11 3 20 10
20 17 0 6 5 4 10 -4 7 -12 4 -16 -13 -19z m-217 5 c0 -2 -3 -11 -6 -20 -9 -23
-23 -20 -21 4 1 11 7 20 14 20 7 0 13 -2 13 -4z m-40 -26 c0 -5 -7 -7 -15 -4
-8 4 -12 10 -9 15 6 11 24 2 24 -11z m-40 -11 c0 -5 4 -8 9 -5 5 3 15 -1 22
-10 11 -13 11 -15 -2 -14 -31 5 -45 -1 -24 -11 19 -8 19 -9 1 -6 -14 1 -20 10
-21 30 -1 15 2 27 7 27 4 0 8 -5 8 -11z m207 -5 c-3 -3 -12 -4 -19 -1 -8 3 -5
6 6 6 11 1 17 -2 13 -5z m-287 -11 c-1 -18 -19 -35 -29 -28 -9 5 -9 10 0 21
12 15 29 19 29 7z m-54 -47 c0 -14 -3 -23 -7 -20 -6 3 -6 22 0 42 3 10 7 -2 7
-22z m104 20 c0 -9 -30 -14 -35 -6 -4 6 3 10 14 10 12 0 21 -2 21 -4z m58 -22
c-12 -12 -17 -13 -23 -3 -5 8 -4 10 4 5 6 -4 14 0 17 9 4 9 9 13 12 10 3 -3
-1 -13 -10 -21z m39 19 c-4 -3 -2 -12 5 -20 8 -10 8 -17 0 -25 -7 -7 -12 -10
-13 -8 -9 48 -8 60 2 60 7 0 9 -3 6 -7z m-215 -57 c7 5 8 2 4 -5 -6 -9 -13 -8
-27 5 -10 9 -19 22 -19 28 0 6 7 0 16 -12 8 -12 20 -19 26 -16z m113 16 c-3
-3 -11 0 -18 7 -9 10 -8 11 6 5 10 -3 15 -9 12 -12z m-351 -20 c3 -5 -1 -9 -9
-9 -8 0 -12 4 -9 9 3 4 7 8 9 8 2 0 6 -4 9 -8z m31 -62 c-12 -13 -12 -19 -2
-30 10 -12 9 -12 -6 -1 -15 12 -16 16 -4 30 8 9 12 23 10 31 -4 13 -3 13 6 0
7 -10 6 -19 -4 -30z m-35 -4 c0 -3 -4 -8 -10 -11 -5 -3 -10 -1 -10 4 0 6 5 11
10 11 6 0 10 -2 10 -4z m-524 -88 c4 -6 3 -8 -4 -4 -6 3 -13 2 -17 -4 -4 -6
-11 -7 -17 -4 -7 5 -9 -2 -6 -20 3 -14 1 -26 -3 -26 -5 0 -9 13 -9 29 0 23 5
31 23 34 12 2 23 5 24 6 1 0 5 -4 9 -11z m-112 -14 c3 -8 2 -12 -4 -9 -6 3
-10 10 -10 16 0 14 7 11 14 -7z m241 -2 c-3 -3 -11 0 -18 7 -9 10 -8 11 6 5
10 -3 15 -9 12 -12z m-105 -6 c0 -3 -4 -8 -10 -11 -5 -3 -10 -1 -10 4 0 6 5
11 10 11 6 0 10 -2 10 -4z m454 -8 c-3 -4 -11 -5 -19 -1 -21 7 -19 12 4 10 11
0 18 -5 15 -9z m-414 -8 c0 -5 -7 -7 -15 -4 -8 4 -15 8 -15 10 0 2 7 4 15 4 8
0 15 -4 15 -10z m-194 -13 c8 3 14 3 14 0 0 -14 -30 -14 -41 1 -11 14 -11 15
0 5 7 -6 20 -9 27 -6z"/>
<path d="M7798 1423 c6 -3 10 -8 8 -12 -3 -4 1 -8 8 -8 22 0 14 23 -8 24 -12
1 -15 -1 -8 -4z"/>
<path d="M7766 1402 c8 -12 -19 -30 -34 -25 -15 6 -15 4 -4 -9 12 -15 15 -15
34 4 12 12 16 23 11 28 -6 4 -8 5 -7 2z"/>
<path d="M7901 1354 c0 -11 3 -14 6 -6 3 7 2 16 -1 19 -3 4 -6 -2 -5 -13z"/>
<path d="M7765 1350 c4 -6 11 -8 16 -5 14 9 11 15 -7 15 -8 0 -12 -5 -9 -10z"/>
<path d="M7420 1262 c-21 -10 -22 -27 -2 -45 17 -15 18 -14 19 18 0 19 0 35
-1 34 0 0 -8 -3 -16 -7z"/>
<path d="M7369 1198 c0 -2 -2 -11 -4 -21 -3 -15 -1 -16 11 -6 7 6 11 15 8 20
-5 9 -13 12 -15 7z"/>
<path d="M7183 1055 c0 -8 4 -12 9 -9 5 3 6 10 3 15 -9 13 -12 11 -12 -6z"/>
<path d="M7133 1003 c0 -7 4 -13 8 -13 4 0 9 6 12 13 3 8 0 14 -7 14 -7 0 -13
-6 -13 -14z"/>
<path d="M5950 991 c0 -6 4 -12 10 -16 5 -3 6 -13 3 -23 -3 -9 -3 -14 2 -10
15 14 14 58 -1 58 -8 0 -14 -4 -14 -9z"/>
<path d="M6255 956 c8 -11 22 -21 31 -22 9 -1 13 0 10 3 -3 4 -1 12 6 20 6 8
7 13 2 12 -5 -1 -11 0 -14 1 -3 1 -15 3 -27 4 -20 2 -21 1 -8 -18z m30 5 c3
-5 2 -12 -3 -15 -5 -3 -9 1 -9 9 0 17 3 19 12 6z"/>
<path d="M7106 958 c3 -5 10 -6 15 -3 13 9 11 12 -6 12 -8 0 -12 -4 -9 -9z"/>
<path d="M5859 923 c-13 -16 -12 -17 4 -4 9 7 17 15 17 17 0 8 -8 3 -21 -13z"/>
<path d="M6355 929 c-4 -6 -5 -12 -2 -15 2 -3 7 2 10 11 7 17 1 20 -8 4z"/>
<path d="M6024 922 c3 -5 0 -13 -6 -15 -9 -4 -10 -6 -1 -6 17 -1 25 16 12 25
-7 4 -9 3 -5 -4z"/>
<path d="M6980 909 c0 -5 5 -7 10 -4 6 3 10 8 10 11 0 2 -4 4 -10 4 -5 0 -10
-5 -10 -11z"/>
<path d="M7015 900 c3 -5 8 -10 11 -10 2 0 4 5 4 10 0 6 -5 10 -11 10 -5 0 -7
-4 -4 -10z"/>
<path d="M5433 893 c4 -3 -1 -16 -10 -27 -18 -21 -18 -21 4 -2 20 16 23 36 6
36 -4 0 -3 -3 0 -7z"/>
<path d="M5866 891 c-4 -5 -1 -13 5 -17 8 -4 9 -3 5 4 -4 7 -3 12 3 12 5 0 12
-5 14 -10 3 -6 4 -5 3 2 -3 16 -23 22 -30 9z"/>
<path d="M6216 891 c-3 -5 2 -15 11 -22 14 -12 16 -12 8 0 -6 11 -4 13 8 8 23
-9 21 0 -2 13 -11 6 -22 6 -25 1z"/>
<path d="M6270 879 c7 -11 14 -18 17 -15 8 8 -5 36 -17 36 -7 0 -7 -6 0 -21z"/>
<path d="M5984 873 c4 -22 -25 -59 -37 -46 -10 10 -8 -6 3 -28 15 -28 40 -24
40 6 0 19 5 25 21 25 19 0 19 -1 5 -16 -19 -18 -13 -34 12 -33 14 0 14 2 -2 8
-11 4 -15 10 -10 13 18 11 54 -11 54 -33 0 -12 3 -19 7 -16 3 4 12 2 19 -3 19
-17 42 13 36 47 l-5 28 26 -24 c15 -13 25 -18 24 -10 -2 8 -5 14 -8 14 -16 0
-40 31 -36 45 2 9 -1 17 -8 17 -9 0 -11 -7 -5 -22 5 -12 4 -28 0 -35 -7 -12
-11 -11 -27 0 -15 12 -16 12 -5 0 19 -22 14 -35 -6 -17 -10 10 -25 17 -33 18
-8 0 -6 4 6 9 20 8 20 9 -1 9 -23 1 -57 27 -68 51 -3 9 -5 6 -2 -7z m16 -27
c0 -2 -8 -10 -17 -17 -16 -13 -17 -12 -4 4 13 16 21 21 21 13z m-20 -40 c0 -3
-4 -8 -10 -11 -5 -3 -10 -1 -10 4 0 6 5 11 10 11 6 0 10 -2 10 -4z m145 -25
c3 -5 1 -12 -5 -16 -5 -3 -10 1 -10 9 0 18 6 21 15 7z"/>
<path d="M6155 880 c-3 -5 1 -10 10 -10 9 0 13 5 10 10 -3 6 -8 10 -10 10 -2
0 -7 -4 -10 -10z"/>
<path d="M5646 872 c-3 -5 1 -9 9 -9 8 0 12 4 9 9 -3 4 -7 8 -9 8 -2 0 -6 -4
-9 -8z"/>
<path d="M6030 856 c6 -6 18 -5 32 2 22 10 21 11 -9 9 -21 -1 -29 -5 -23 -11z"/>
<path d="M6085 849 c-4 -6 -5 -12 -2 -15 2 -3 7 2 10 11 7 17 1 20 -8 4z"/>
<path d="M6256 851 c5 -11 3 -13 -10 -8 -15 6 -14 2 4 -23 29 -41 37 -44 42
-15 3 13 2 23 -3 22 -4 -1 -15 7 -24 18 -9 11 -13 14 -9 6z"/>
<path d="M7070 856 c0 -2 7 -6 15 -10 8 -3 15 -1 15 4 0 6 -7 10 -15 10 -8 0
-15 -2 -15 -4z"/>
<path d="M5699 777 c26 -28 31 -32 31 -19 0 4 -13 16 -28 26 l-27 19 24 -26z"/>
<path d="M5910 744 c-7 -13 -10 -27 -7 -31 4 -3 2 -12 -5 -20 -7 -9 -8 -17 -1
-24 10 -10 13 0 14 44 0 12 5 17 14 13 21 -8 29 12 12 28 -12 13 -16 11 -27
-10z"/>
<path d="M6030 756 c0 -18 26 -39 39 -31 7 4 6 12 -2 25 -14 23 -37 27 -37 6z
m30 -17 c0 -6 -4 -7 -10 -4 -5 3 -10 11 -10 16 0 6 5 7 10 4 6 -3 10 -11 10
-16z"/>
<path d="M5465 731 c1 -9 -1 -21 -6 -27 -5 -7 -3 -11 6 -11 8 0 12 4 9 9 -3 4
-1 8 5 8 5 0 9 8 8 18 0 10 -6 19 -13 19 -6 0 -11 -7 -9 -16z"/>
<path d="M6115 737 c-12 -7 -19 -20 -17 -29 4 -19 -13 -25 -23 -8 -9 14 -19
12 -42 -8 -17 -14 -18 -19 -7 -29 10 -10 14 -9 19 7 4 11 10 18 15 15 5 -3 2
-14 -7 -25 -14 -16 -20 -17 -32 -7 -12 9 -13 9 -7 0 4 -7 2 -13 -3 -13 -6 0
-11 -9 -11 -19 0 -11 -4 -23 -10 -26 -5 -3 -10 -1 -10 6 0 8 -4 8 -15 -1 -17
-14 -20 -50 -4 -50 6 0 9 7 6 15 -4 8 -1 17 5 21 6 4 8 3 4 -4 -3 -6 -2 -13 4
-17 5 -3 10 1 10 10 0 11 5 15 15 11 20 -7 33 23 15 34 -7 4 2 7 23 7 20 -1
34 -5 31 -9 -3 -4 -12 -4 -22 -1 -16 5 -16 5 0 -12 20 -22 24 -20 34 19 5 21
4 27 -4 22 -8 -4 -10 -2 -6 8 5 12 9 12 32 0 20 -10 29 -11 41 -1 12 10 14 9
9 -5 -4 -9 -1 -19 7 -21 16 -7 14 15 -4 37 -17 20 -35 21 -28 2 4 -10 1 -13
-9 -9 -11 4 -12 8 -3 20 7 7 19 11 27 8 10 -4 12 0 8 10 -3 9 1 18 9 22 13 5
13 7 -2 19 -22 16 -23 16 -48 1z m25 -22 c-7 -8 -17 -15 -23 -15 -6 0 -2 7 9
15 25 19 30 19 14 0z"/>
<path d="M5343 716 c0 -30 12 -42 23 -25 5 8 3 9 -6 4 -9 -6 -12 -4 -8 7 4 8
3 21 -2 27 -5 9 -7 4 -7 -13z"/>
<path d="M5391 724 c0 -11 3 -14 6 -6 3 7 2 16 -1 19 -3 4 -6 -2 -5 -13z"/>
<path d="M5863 710 c-1 -11 2 -22 8 -25 5 -4 8 3 6 14 -4 28 -12 34 -14 11z"/>
<path d="M6830 720 c0 -5 5 -10 10 -10 6 0 10 5 10 10 0 6 -4 10 -10 10 -5 0
-10 -4 -10 -10z"/>
<path d="M6708 705 c-3 -6 0 -16 8 -23 9 -8 14 -9 14 -2 0 6 5 8 12 4 7 -4 8
-3 4 5 -4 6 -11 9 -16 6 -4 -3 -10 0 -12 7 -3 7 -7 8 -10 3z"/>
<path d="M5498 693 c7 -3 16 -2 19 1 4 3 -2 6 -13 5 -11 0 -14 -3 -6 -6z"/>
<path d="M5416 678 c3 -5 10 -6 15 -3 13 9 11 12 -6 12 -8 0 -12 -4 -9 -9z"/>
<path d="M5950 687 c0 -2 6 -10 14 -16 11 -9 16 -9 22 1 4 7 4 10 -1 6 -4 -4
-14 -3 -22 3 -7 6 -13 9 -13 6z"/>
<path d="M5267 673 c-12 -12 -7 -31 9 -37 14 -5 15 -4 5 8 -7 8 -10 20 -6 26
7 11 2 14 -8 3z"/>
<path d="M5479 678 c-5 -18 -6 -38 -1 -34 7 8 12 36 6 36 -2 0 -4 -1 -5 -2z"/>
<path d="M5435 649 c-4 -6 -5 -13 -2 -16 7 -7 27 6 27 18 0 12 -17 12 -25 -2z"/>
<path d="M4965 641 c-3 -5 -2 -12 3 -15 5 -3 9 1 9 9 0 17 -3 19 -12 6z"/>
<path d="M5383 643 c-12 -2 -36 -20 -52 -39 -17 -19 -39 -34 -49 -34 -23 0
-42 -19 -43 -44 -1 -17 -2 -18 -6 -3 -5 18 -23 24 -23 8 0 -28 14 -41 46 -41
24 0 34 5 34 16 0 9 5 13 13 9 6 -4 3 1 -7 9 -18 15 -15 21 8 17 6 -1 21 1 35
4 22 6 24 8 11 18 -24 19 -24 40 -1 27 13 -6 18 -18 16 -31 -3 -13 0 -19 8
-16 7 2 12 10 12 18 1 8 7 13 15 11 8 -2 11 0 7 5 -5 4 -12 9 -15 9 -30 6 -51
18 -46 26 3 5 14 2 24 -7 14 -12 19 -13 27 -3 6 7 10 21 10 31 0 9 -1 16 -1
16 -1 -1 -11 -4 -23 -6z"/>
<path d="M5823 635 c0 -8 4 -12 9 -9 5 3 6 10 3 15 -9 13 -12 11 -12 -6z"/>
<path d="M5418 601 c-7 -9 -9 -13 -4 -9 5 4 16 3 25 -2 13 -6 17 -4 17 9 0 22
-22 23 -38 2z"/>
<path d="M5235 601 c-3 -5 -1 -12 5 -16 6 -4 7 -12 3 -18 -4 -7 1 -5 12 3 16
14 16 15 1 18 -9 2 -14 8 -11 13 4 5 4 9 1 9 -3 0 -7 -4 -11 -9z"/>
<path d="M4976 578 c3 -5 10 -6 15 -3 13 9 11 12 -6 12 -8 0 -12 -4 -9 -9z"/>
<path d="M5526 578 c3 -5 10 -6 15 -3 13 9 11 12 -6 12 -8 0 -12 -4 -9 -9z"/>
<path d="M5210 565 c0 -8 4 -15 8 -15 5 0 9 7 9 15 0 8 -4 15 -9 15 -4 0 -8
-7 -8 -15z"/>
<path d="M5655 570 c-3 -6 1 -7 9 -4 18 7 21 14 7 14 -6 0 -13 -4 -16 -10z"/>
<path d="M5907 568 c-2 -7 -1 -22 3 -33 6 -16 8 -13 7 13 0 35 -2 39 -10 20z"/>
<path d="M5735 561 c-3 -6 -14 -8 -25 -6 -12 2 -18 0 -15 -6 4 -5 1 -9 -4 -9
-6 0 -11 -5 -11 -11 0 -8 4 -8 13 -2 6 6 20 9 30 7 11 -1 16 0 13 3 -3 4 -1
12 5 20 6 7 9 13 6 13 -3 0 -8 -4 -12 -9z"/>
<path d="M5847 549 c13 -12 31 -15 30 -4 -1 5 -10 10 -20 10 -10 1 -14 -2 -10
-6z"/>
<path d="M5747 529 c-3 -10 2 -24 11 -31 14 -11 15 -10 9 6 -4 10 -3 24 3 31
7 8 5 12 -4 12 -8 0 -17 -8 -19 -18z"/>
<path d="M5175 529 c-4 -6 -4 -13 -1 -16 3 -4 6 -1 6 6 0 7 5 9 12 5 7 -4 8
-3 4 4 -9 15 -13 15 -21 1z"/>
<path d="M5332 524 c-12 -13 -10 -14 12 -8 16 4 26 2 26 -5 0 -11 -4 -12 -45
-15 -11 -1 -29 -6 -40 -12 -25 -14 -56 -10 -71 11 -10 14 -12 13 -17 -6 -3
-11 -3 -18 0 -15 7 7 39 -36 35 -47 -1 -5 3 -5 9 -2 8 5 8 10 0 18 -6 6 -11
16 -11 22 0 5 13 -5 29 -24 19 -23 30 -30 35 -22 4 7 2 10 -5 9 -6 -2 -14 3
-17 11 -3 10 0 11 9 5 11 -6 10 -3 -1 11 -13 17 -13 18 1 13 9 -4 22 -1 29 5
10 9 11 9 6 -3 -5 -9 -2 -8 7 3 15 18 27 11 40 -23 4 -12 6 -11 6 3 1 13 6 17
20 12 11 -3 22 -1 26 4 3 6 0 9 -7 6 -7 -3 -19 -1 -27 4 -10 7 -11 13 -1 31 7
13 8 20 2 16 -6 -3 -13 -2 -17 4 -8 14 -17 12 -33 -6z"/>
<path d="M5436 509 c3 -5 10 -7 15 -4 15 10 10 -12 -6 -29 -21 -21 -19 -28 4
-14 11 7 17 16 15 20 -3 4 2 8 10 8 9 0 16 -6 16 -12 0 -17 20 12 20 30 0 9
-5 10 -19 3 -10 -6 -21 -7 -25 -4 -10 11 -37 12 -30 2z"/>
<path d="M5395 499 c4 -6 10 -8 13 -5 3 3 12 0 21 -7 14 -11 14 -10 2 6 -14
18 -47 24 -36 6z"/>
<path d="M4664 485 c-4 -8 -11 -12 -17 -8 -6 3 -7 1 -3 -5 10 -16 14 -15 26 8
6 11 8 20 5 20 -3 0 -8 -7 -11 -15z"/>
<path d="M5330 421 c0 -5 5 -13 10 -16 6 -3 10 -2 10 4 0 5 -4 13 -10 16 -5 3
-10 2 -10 -4z"/>
<path d="M4319 403 c-13 -16 -12 -17 4 -4 16 13 21 21 13 21 -2 0 -10 -8 -17
-17z"/>
<path d="M5362 400 c0 -14 2 -19 5 -12 2 6 2 18 0 25 -3 6 -5 1 -5 -13z"/>
<path d="M4384 392 c3 -6 -2 -13 -11 -15 -16 -4 -16 -5 -1 -6 21 -1 32 15 17
25 -7 4 -9 3 -5 -4z"/>
<path d="M4330 360 c0 -5 5 -10 10 -10 6 0 10 5 10 10 0 6 -4 10 -10 10 -5 0
-10 -4 -10 -10z"/>
<path d="M4270 356 c0 -2 7 -7 16 -10 8 -3 12 -2 9 4 -6 10 -25 14 -25 6z"/>
<path d="M4385 350 c3 -5 8 -10 11 -10 2 0 4 5 4 10 0 6 -5 10 -11 10 -5 0 -7
-4 -4 -10z"/>
<path d="M4410 348 c0 -22 17 -42 24 -29 4 6 2 11 -4 11 -6 0 -9 4 -5 9 3 5 1
12 -5 16 -5 3 -10 0 -10 -7z"/>
<path d="M5160 345 c-7 -8 -9 -15 -6 -15 4 0 14 7 22 15 9 8 11 15 6 15 -5 0
-15 -7 -22 -15z"/>
<path d="M4027 329 c7 -7 15 -10 18 -7 3 3 -2 9 -12 12 -14 6 -15 5 -6 -5z"/>
<path d="M4450 326 c0 -2 8 -10 18 -17 15 -13 16 -12 3 4 -13 16 -21 21 -21
13z"/>
<path d="M5170 299 c0 -11 27 -12 34 -1 2 4 -4 9 -15 9 -10 1 -19 -2 -19 -8z"/>
<path d="M4366 288 c3 -5 10 -6 15 -3 13 9 11 12 -6 12 -8 0 -12 -4 -9 -9z"/>
<path d="M4480 285 c-9 -11 -9 -15 -1 -15 7 0 9 -6 5 -12 -4 -7 1 -5 12 4 13
13 15 21 8 28 -8 8 -15 6 -24 -5z"/>
<path d="M3955 280 c-4 -6 -1 -18 6 -26 15 -19 -2 -40 -26 -30 -12 4 -14 10
-5 25 7 14 7 22 -2 27 -7 4 -8 3 -4 -4 5 -8 0 -12 -13 -12 -12 0 -21 -5 -21
-11 0 -5 4 -8 9 -5 5 3 12 -1 15 -10 4 -12 1 -14 -13 -9 -11 3 -22 1 -26 -4
-4 -7 1 -8 12 -4 16 6 17 5 3 -13 -11 -15 -11 -16 0 -6 17 14 34 16 25 2 -3
-5 -2 -10 4 -10 5 0 12 6 14 13 4 9 8 8 16 -3 9 -12 4 -16 -31 -18 -30 -2 -44
1 -50 12 -11 20 -93 22 -101 3 -3 -8 1 -14 9 -14 7 0 11 3 9 7 -2 4 2 7 10 7
11 0 12 -4 4 -13 -7 -8 -7 -14 1 -19 5 -3 10 -1 10 4 0 6 5 11 10 11 19 0 10
-17 -15 -28 -20 -9 -23 -9 -18 3 6 17 -6 18 -58 6 -20 -5 -43 -5 -51 0 -12 7
-15 3 -12 -17 1 -14 5 -29 9 -32 4 -4 5 0 3 8 -1 9 2 16 7 16 6 0 9 -7 7 -16
-1 -8 5 -4 13 10 9 14 14 17 11 8 -6 -19 19 -45 28 -29 4 5 2 12 -4 16 -18 11
-11 23 10 18 11 -3 20 -9 20 -14 0 -5 3 -8 8 -6 4 1 7 -3 7 -8 0 -10 -4 -11
-33 -14 -7 0 -10 -5 -7 -11 3 -5 1 -10 -4 -10 -6 0 -11 4 -11 9 0 13 -79 11
-87 -2 -3 -5 -2 -7 4 -4 6 4 19 0 29 -8 19 -15 19 -15 0 -8 -16 5 -18 3 -13
-12 6 -15 5 -16 -8 -5 -11 9 -15 9 -15 1 0 -7 -4 -10 -9 -7 -5 3 -8 -5 -7 -18
1 -22 6 -24 46 -24 25 0 48 5 52 11 6 9 8 9 8 0 0 -10 62 -13 277 -13 246 0
275 2 257 15 -10 8 -27 15 -36 15 -13 0 -17 7 -16 24 2 16 7 22 18 20 8 -2 0
3 -19 12 -19 8 -30 19 -25 22 14 11 15 30 0 35 -18 7 -15 -35 4 -58 14 -17 13
-17 -10 -5 -14 8 -27 14 -30 13 -3 -1 -7 8 -7 20 -2 14 1 17 6 9 5 -8 8 0 9
22 1 28 -2 33 -17 29 -15 -4 -17 0 -13 26 2 18 9 28 15 24 6 -3 7 -1 3 5 -4 6
-14 8 -23 5 -12 -5 -15 -2 -11 8 4 11 -1 14 -21 13 -20 -1 -25 -6 -23 -20 5
-25 12 -32 12 -11 0 22 16 22 26 0 12 -29 11 -37 -5 -58 -15 -18 -15 -19 2 -6
11 9 17 10 17 2 0 -6 3 -10 8 -10 19 3 20 -3 4 -21 -16 -19 -18 -19 -29 -3
-13 17 -28 11 -28 -10 0 -15 -25 -16 -26 -2 0 6 -8 18 -17 28 -15 17 -15 17 1
11 11 -4 19 0 23 10 3 9 10 16 15 16 5 0 2 -12 -8 -27 -14 -21 -14 -25 -3 -21
8 2 15 9 15 14 0 5 3 14 7 19 9 14 -3 29 -26 33 -12 2 -16 -1 -10 -10 4 -7 4
-10 -1 -6 -4 4 -17 2 -29 -4 -35 -20 -47 -18 -44 5 2 11 9 22 16 23 7 1 8 0 2
-3 -15 -7 -12 -20 5 -20 8 0 15 7 15 15 0 9 3 12 6 9 4 -3 16 -1 27 5 20 10
20 11 2 24 -10 7 -21 11 -26 9 -4 -3 -11 0 -15 6 -4 8 -3 9 4 5 7 -4 12 -3 12
3 0 5 -14 8 -30 6 -17 -2 -28 0 -24 6 3 5 10 6 16 3 7 -4 8 -2 4 4 -9 15 -23
15 -31 2z m46 -47 c13 -16 12 -17 -3 -4 -17 13 -22 21 -14 21 2 0 10 -8 17
-17z m46 -9 c-3 -3 -12 -4 -19 -1 -8 3 -5 6 6 6 11 1 17 -2 13 -5z m-147 -66
c0 -4 -4 -8 -9 -8 -6 0 -12 4 -15 8 -3 5 1 9 9 9 8 0 15 -4 15 -9z m-32 -47
c-10 -14 -18 -17 -28 -10 -12 7 -12 9 3 9 10 0 20 7 24 15 3 9 8 14 10 11 3
-3 -1 -14 -9 -25z m-51 -3 c-3 -8 -6 -5 -6 6 -1 11 2 17 5 13 3 -3 4 -12 1
-19z m213 2 c0 -5 -5 -10 -11 -10 -5 0 -7 5 -4 10 3 6 8 10 11 10 2 0 4 -4 4
-10z m95 -20 c3 -5 1 -10 -4 -10 -6 0 -11 5 -11 10 0 6 2 10 4 10 3 0 8 -4 11
-10z m-405 -35 c0 -5 -5 -3 -10 5 -5 8 -10 20 -10 25 0 6 5 3 10 -5 5 -8 10
-19 10 -25z m244 19 c3 -8 2 -12 -4 -9 -6 3 -10 10 -10 16 0 14 7 11 14 -7z"/>
<path d="M4106 278 c3 -5 10 -6 15 -3 13 9 11 12 -6 12 -8 0 -12 -4 -9 -9z"/>
<path d="M4927 273 c-3 -5 -1 -17 4 -28 7 -18 8 -18 8 -2 1 12 5 16 14 11 8
-5 8 -2 -2 9 -15 19 -18 20 -24 10z"/>
<path d="M3785 260 c-4 -6 -10 -8 -15 -5 -5 3 -11 1 -14 -4 -8 -13 22 -7 36 7
7 7 9 12 6 12 -4 0 -10 -5 -13 -10z"/>
<path d="M4030 260 c0 -5 5 -10 11 -10 5 0 7 5 4 10 -3 6 -8 10 -11 10 -2 0
-4 -4 -4 -10z"/>
<path d="M4375 261 c-3 -5 -2 -12 3 -15 5 -3 9 1 9 9 0 17 -3 19 -12 6z"/>
<path d="M4434 246 c-12 -25 -3 -58 10 -37 4 6 2 11 -5 11 -9 0 -8 4 1 15 6 8
10 19 8 24 -1 6 -8 0 -14 -13z"/>
<path d="M3830 255 c0 -8 29 -12 39 -5 9 5 4 8 -13 8 -14 0 -26 -2 -26 -3z"/>
<path d="M4156 252 c-3 -5 1 -9 9 -9 8 0 12 4 9 9 -3 4 -7 8 -9 8 -2 0 -6 -4
-9 -8z"/>
<path d="M4975 240 c-10 -11 -14 -21 -9 -21 5 -1 15 -2 22 -3 7 0 17 -8 23
-16 9 -13 10 -12 5 3 -3 9 -1 17 5 17 6 0 7 5 3 11 -3 6 -16 8 -28 5 -20 -5
-20 -5 -2 9 11 8 15 15 9 15 -5 0 -18 -9 -28 -20z"/>
<path d="M4265 230 c3 -4 16 -7 30 -7 32 0 26 8 -9 11 -14 2 -23 0 -21 -4z"/>
<path d="M4476 227 c3 -10 9 -15 12 -12 3 3 0 11 -7 18 -10 9 -11 8 -5 -6z"/>
<path d="M4762 231 c-11 -7 -11 -9 0 -14 9 -3 15 1 15 9 0 8 -1 14 -1 14 -1 0
-7 -4 -14 -9z"/>
<path d="M4797 218 c2 -5 10 -8 18 -8 8 0 16 3 18 8 3 4 -5 7 -18 7 -13 0 -21
-3 -18 -7z"/>
<path d="M4676 206 c10 -8 21 -12 24 -10 5 6 -21 24 -34 24 -6 0 -1 -6 10 -14z"/>
<path d="M4175 200 c-3 -6 1 -7 9 -4 18 7 21 14 7 14 -6 0 -13 -4 -16 -10z"/>
<path d="M4287 203 c-4 -6 0 -13 8 -17 8 -3 17 0 21 6 4 6 3 8 -4 4 -5 -3 -12
-1 -14 6 -3 8 -6 9 -11 1z"/>
<path d="M4500 199 c0 -5 5 -7 10 -4 6 3 10 8 10 11 0 2 -4 4 -10 4 -5 0 -10
-5 -10 -11z"/>
<path d="M3667 187 c2 -4 15 -6 28 -4 38 5 38 13 1 13 -19 0 -32 -4 -29 -9z"/>
<path d="M4449 197 c0 -1 -2 -10 -4 -20 -3 -17 -2 -17 14 -3 10 9 20 15 22 14
2 -2 3 -1 1 1 -2 5 -31 11 -33 8z"/>
<path d="M4949 187 c6 -8 7 -18 3 -22 -4 -5 -1 -5 6 -1 10 6 10 11 1 22 -6 8
-14 14 -16 14 -3 0 0 -6 6 -13z"/>
<path d="M4259 164 c-10 -12 -10 -15 2 -12 8 2 13 -2 12 -9 -2 -8 4 -10 14 -6
12 5 13 8 4 11 -10 3 -10 6 -1 12 8 5 8 9 -3 13 -9 3 -21 -1 -28 -9z"/>
<path d="M4385 150 c-10 -11 -13 -20 -7 -20 7 0 12 5 12 11 0 5 4 8 8 5 5 -3
9 1 9 9 0 19 0 19 -22 -5z"/>
<path d="M4207 137 c-6 -17 1 -28 31 -45 14 -8 22 -8 22 -1 0 6 5 7 13 2 17
-10 57 -12 57 -1 0 8 -2 9 -61 13 -46 3 -60 11 -52 30 3 8 3 15 0 15 -3 0 -7
-6 -10 -13z"/>
<path d="M4430 140 c0 -5 7 -7 15 -4 8 4 15 8 15 10 0 2 -7 4 -15 4 -8 0 -15
-4 -15 -10z"/>
<path d="M3626 118 c5 -7 2 -9 -8 -6 -8 4 -15 0 -15 -7 0 -10 5 -11 19 -4 16
9 17 29 2 29 -3 0 -2 -5 2 -12z"/>
<path d="M4996 121 c-4 -7 -5 -15 -2 -18 9 -9 19 4 14 18 -4 11 -6 11 -12 0z"/>
<path d="M3493 105 c0 -8 4 -12 9 -9 5 3 6 10 3 15 -9 13 -12 11 -12 -6z"/>
<path d="M4220 51 c0 -3 11 -11 25 -18 17 -7 23 -8 18 0 -4 6 0 8 10 4 11 -4
17 -1 17 8 0 18 -12 19 -28 3 -7 -7 -12 -8 -12 -2 0 6 -7 11 -15 11 -8 0 -15
-3 -15 -6z"/>
<path d="M4338 25 c-15 -19 -15 -23 -3 -21 22 3 35 19 27 33 -5 7 -13 3 -24
-12z"/>
<path d="M3595 19 c-4 -6 -5 -12 -2 -15 2 -3 7 2 10 11 7 17 1 20 -8 4z"/>
<path d="M4920 21 c0 -6 -17 -12 -37 -14 l-38 -4 43 -1 c31 -2 42 2 42 13 0 8
-2 15 -5 15 -3 0 -5 -4 -5 -9z"/>
<path d="M4290 9 c0 -5 5 -7 10 -4 6 3 10 8 10 11 0 2 -4 4 -10 4 -5 0 -10 -5
-10 -11z"/>
</g>
</svg>
