<?xml version="1.0" standalone="no"?>
<!DOCTYPE svg PUBLIC "-//W3C//DTD SVG 20010904//EN"
 "http://www.w3.org/TR/2001/REC-SVG-20010904/DTD/svg10.dtd">
<svg version="1.0" xmlns="http://www.w3.org/2000/svg"
 width="622.000000pt" height="293.000000pt" viewBox="0 0 622.000000 293.000000"
 preserveAspectRatio="xMidYMid meet">

<g transform="translate(0.000000,293.000000) scale(0.100000,-0.100000)"
fill="#000000" stroke="none">
<path d="M3128 2519 c-42 -38 -86 -85 -98 -104 l-21 -34 5 -703 c3 -387 6
-706 6 -710 0 -5 47 -8 105 -8 l105 0 0 793 c0 435 -3 802 -6 815 -4 12 -9 22
-13 22 -3 0 -41 -32 -83 -71z"/>
<path d="M2799 2518 c-8 -7 -53 -48 -101 -92 l-88 -78 0 -695 0 -694 108 3
107 3 -3 780 c-2 429 -5 781 -7 783 -1 2 -9 -3 -16 -10z"/>
<path d="M3515 2164 c-47 -42 -88 -86 -90 -98 -3 -11 -4 -264 -3 -561 l3 -540
103 -3 102 -3 0 641 c0 556 -2 640 -15 640 -8 0 -53 -34 -100 -76z"/>
<path d="M4106 1989 c-97 -24 -228 -125 -270 -208 -10 -20 -15 -121 -18 -431
-4 -357 -3 -411 11 -453 l17 -49 41 34 c23 18 44 42 48 53 4 13 8 16 12 7 4
-10 8 -10 19 -1 8 6 14 8 14 4 0 -3 14 7 31 24 35 36 67 40 92 11 9 -11 24
-20 32 -20 8 0 15 -4 15 -8 0 -11 20 -14 100 -14 73 0 205 45 252 85 78 68 98
87 97 94 -4 26 3 45 15 40 9 -4 16 3 18 17 3 16 0 22 -14 22 -10 0 -18 -5 -18
-10 0 -5 -3 -6 -6 -3 -9 9 16 38 26 32 4 -3 11 2 14 11 3 8 2 13 -3 10 -5 -3
3 22 17 57 80 198 38 409 -113 563 -90 92 -188 137 -304 141 -47 1 -103 -2
-125 -8z m202 -235 c169 -84 204 -309 70 -450 -68 -72 -115 -89 -243 -89
l-100 0 -3 242 -2 241 24 28 c50 59 167 72 254 28z m272 -598 c0 -2 -8 -10
-17 -17 -16 -13 -17 -12 -4 4 13 16 21 21 21 13z"/>
<path d="M1710 1476 l0 -504 23 -6 c36 -10 297 -7 367 4 187 30 333 171 385
375 58 230 -53 484 -255 583 -89 44 -145 52 -346 52 l-174 0 0 -504z m402 260
c48 -23 100 -75 123 -122 27 -55 32 -172 10 -226 -23 -58 -77 -123 -128 -152
-41 -24 -143 -41 -174 -29 -15 6 -18 254 -6 448 l6 107 66 -4 c37 -3 83 -13
103 -22z"/>
<path d="M4646 1263 c-6 -14 -5 -15 5 -6 7 7 10 15 7 18 -3 3 -9 -2 -12 -12z"/>
<path d="M3100 654 c-57 -32 -80 -53 -91 -81 -5 -14 -17 -23 -29 -23 -25 0
-27 -25 -2 -35 16 -6 16 -7 -3 -21 -19 -14 -19 -15 4 -21 22 -6 23 -9 19 -87
l-3 -81 28 -3 27 -3 0 84 c0 81 1 85 21 80 19 -5 21 -2 17 33 -3 34 0 39 20
42 24 4 29 21 10 40 -10 10 -8 15 9 27 18 13 38 75 24 75 -3 0 -26 -12 -51
-26z"/>
<path d="M2550 430 l0 -130 63 0 c106 0 165 56 154 147 -8 76 -63 113 -169
113 l-48 0 0 -130z m106 70 c28 0 54 -39 54 -80 0 -43 -18 -61 -72 -74 l-28
-6 0 86 c0 74 2 85 16 80 9 -3 22 -6 30 -6z"/>
<path d="M2845 498 c-4 -35 -5 -92 -3 -128 3 -63 4 -65 31 -68 l27 -3 0 130 0
131 -24 0 c-23 0 -25 -5 -31 -62z"/>
<path d="M3175 445 c-4 -63 -5 -121 -1 -130 3 -8 17 -15 30 -15 22 0 25 5 28
43 l3 42 48 -1 c47 0 47 0 47 33 l0 33 -51 0 c-49 0 -50 1 -47 27 3 26 5 27
61 24 l57 -2 0 30 0 31 -84 0 -84 0 -7 -115z"/>
<path d="M3410 430 l0 -130 29 0 c28 0 30 3 33 43 3 40 5 42 38 45 37 4 50 15
50 45 0 14 -9 17 -45 17 -41 0 -45 2 -45 25 0 24 3 25 61 25 52 0 60 2 55 16
-3 9 -6 22 -6 30 0 11 -18 14 -85 14 l-85 0 0 -130z"/>
</g>
</svg>
